Release info:

General
Format                                   : Matroska
Format version                           : Version 4 / Version 2
File size                                : 642 MiB
Duration                                 : 1h 33mn
Overall bit rate                         : 964 Kbps

Video
ID                                       : 1
Format                                   : AVC
Format/Info                              : Advanced Video Codec
Format profile                           : High@L3.1
Format settings, CABAC                   : Yes
Format settings, ReFrames                : 4 frames
Codec ID                                 : V_MPEG4/ISO/AVC
Duration                                 : 1h 33mn
Bit rate                                 : 833 Kbps
Width                                    : 1 280 pixels
Height                                   : 544 pixels
Display aspect ratio                     : 2.35:1
Frame rate mode                          : Constant
Frame rate                               : 29.970 fps
Color space                              : YUV
Chroma subsampling                       : 4:2:0
Bit depth                                : 8 bits
Scan type                                : Progressive
Bits/(Pixel*Frame)                       : 0.040
Stream size                              : 544 MiB (85%)
Language                                 : English
Default                                  : Yes
Forced                                   : No

Audio
ID                                       : 2
Format                                   : MPEG Audio
Format version                           : Version 1
Format profile                           : Layer 3
Mode                                     : Joint stereo
Mode extension                           : MS Stereo
Codec ID                                 : A_MPEG/L3
Codec ID/Hint                            : MP3
Duration                                 : 1h 33mn
Bit rate mode                            : Constant
Bit rate                                 : 128 Kbps
Channel(s)                               : 2 channels
Sampling rate                            : 44.1 KHz
Compression mode                         : Lossy
Stream size                              : 85.3 MiB (13%)
Language                                 : English
Default                                  : Yes
Forced                                   : No



Source:
credit to original movie ripper MATiNE (Thanks)

IMDB Info:

Annabel and Lucas are faced with the challenge of raising his young nieces that were left alone in the forest for 5 years.... but how alone were they?

Director: Andrés Muschietti
Writers: Neil Cross, Andrés Muschietti, 
Stars: Jessica Chastain, Nikolaj Coster-Waldau, Megan Charpentier

Genres: Horror | Mystery
 
http://www.imdb.com/title/tt2023587/

Screen Shot:
 
http://www.shotpix.com/images/14082490022192325357.png 
http://www.shotpix.com/images/54734421847172729387.png 
http://www.shotpix.com/images/22576607102266117188.png 
http://www.shotpix.com/images/03448437306696898330.png